<svg width="180" height="90" viewBox="0 0 180 90" fill="none" xmlns="http://www.w3.org/2000/svg">
<g clip-path="url(#clip0_1136_121059)">
<path d="M0.00992682 88.6633C0.185463 76.8456 2.68694 65.1783 7.37154 54.3274C12.0561 43.4764 18.8321 33.6545 27.3126 25.4222C35.7931 17.19 45.812 10.7087 56.7972 6.34848C67.7825 1.98823 79.519 -0.16561 91.3367 0.00992688C103.154 0.185463 114.822 2.68694 125.673 7.37154C136.524 12.0561 146.346 18.8321 154.578 27.3126C162.81 35.7931 169.291 45.812 173.652 56.7972C178.012 67.7825 180.166 79.519 179.99 91.3367L151.193 90.909C151.313 82.8729 149.848 74.8921 146.883 67.4221C143.918 59.9521 139.511 53.1393 133.913 47.3726C128.315 41.6058 121.636 36.9982 114.257 33.8126C106.879 30.6271 98.945 28.9261 90.909 28.8067C82.8729 28.6874 74.8921 30.152 67.4221 33.117C59.9521 36.0819 53.1393 40.4892 47.3726 46.0871C41.6058 51.685 36.9982 58.364 33.8126 65.7426C30.6271 73.1212 28.9261 81.055 28.8067 89.0911L0.00992682 88.6633Z" fill="white"/>
<path d="M0.00992682 88.6633C0.244555 72.8674 4.63283 57.4114 12.7337 43.8489C20.8346 30.2864 32.3627 19.0951 46.1594 11.3997L60.1884 36.5518C50.8067 41.7846 42.9675 49.3947 37.4589 58.6173C31.9503 67.8398 28.9663 78.3498 28.8067 89.0911L0.00992682 88.6633Z" fill="#6EC32A"/>
<path d="M138.294 14.0548C151.086 22.1894 161.616 33.4235 168.907 46.7146C176.198 60.0056 180.014 74.9231 180 90.0826L151.2 90.0562C151.209 79.7477 148.615 69.6038 143.657 60.5659C138.699 51.528 131.539 43.8888 122.84 38.3572L138.294 14.0548Z" fill="#F15A25"/>
<path d="M49.0695 9.84579C62.5707 2.9515 77.5945 -0.420763 92.7469 0.0419305C107.899 0.504625 122.689 4.78728 135.745 12.4925L121.106 37.2949C112.229 32.0553 102.172 29.1431 91.8679 28.8285C81.5643 28.5139 71.348 30.807 62.1673 35.4951L49.0695 9.84579Z" fill="#FEC81D"/>
<path d="M90.3882 87.6282C84.7447 87.6022 80.1723 82.6181 80.1964 76.5187C80.2205 70.4195 90.3882 51.2354 90.3882 51.2354C90.3882 51.2354 100.691 70.5137 100.667 76.6131C100.643 82.7125 96.0317 87.6541 90.3882 87.6282Z" fill="white"/>
</g>
<defs>
<clipPath id="clip0_1136_121059">
<rect width="180" height="90" fill="white"/>
</clipPath>
</defs>
</svg>
